<svg xmlns="http://www.w3.org/2000/svg" xmlns:xlink="http://www.w3.org/1999/xlink" width="12" height="12" viewBox="0 0 12 12" fill="none">
<path d="M2.53058 1.44C1.61058 2.36 1.09058 3.61 1.09058 4.91C1.09058 6.52 1.89058 8.2 3.17058 9.76C3.67058 10.36 4.21058 10.9 4.72058 11.31L4.77058 11.36C5.28058 11.77 5.68058 12 6.00058 12C6.33058 12 6.75058 11.75 7.28058 11.31C7.79058 10.9 8.33058 10.36 8.83058 9.76C10.1106 8.21 10.9106 6.52 10.9106 4.91C10.9106 3.61 10.3906 2.36 9.47058 1.44C8.55058 0.52 7.30058 0 6.00058 0C4.70058 0 3.45058 0.52 2.53058 1.44ZM3.82058 4.91C3.82058 6.11 4.79058 7.09 6.00058 7.09C7.20058 7.09 8.18058 6.11 8.18058 4.91C8.18058 3.7 7.20058 2.73 6.00058 2.73C4.79058 2.73 3.82058 3.7 3.82058 4.91Z" fill-rule="evenodd"  fill="#606060" >
</path>
</svg>
