<svg xmlns="http://www.w3.org/2000/svg" xmlns:xlink="http://www.w3.org/1999/xlink" width="16.00030517578125" height="16" viewBox="0 0 16.00030517578125 16" fill="none"><g opacity="1"  transform="translate(0.00030517578125 0)  rotate(0)"><path id="路径 1" fill-rule="evenodd" style="fill:#989898" opacity="1" d="M10.7612 0.994512C9.79116 1.17451 8.89116 1.68451 8.12116 2.27451C8.09116 2.29451 8.05116 2.33451 8.02116 2.35451C7.11116 1.49451 5.93116 0.974512 4.68116 0.884512C3.02116 0.774512 1.32116 1.79451 0.53116 3.23451C0.0111597 4.17451 -0.10884 5.21451 0.0911597 6.25451C0.25116 7.17451 0.68116 8.01451 1.20116 8.77451C2.23116 10.2845 3.56116 11.5845 4.92116 12.7945C5.78116 13.5545 6.67116 14.3145 7.60116 14.9845C7.62116 14.9945 7.63116 15.0045 7.64116 15.0145C7.84116 15.1545 8.23116 15.1645 8.43116 15.0145C9.07116 14.5145 9.70116 13.9945 10.3112 13.4645C11.4912 12.4345 12.6312 11.3645 13.6512 10.1945C14.7612 8.92451 15.9012 7.46451 15.9912 5.70451C16.0812 3.90451 15.0212 2.06451 13.3712 1.32451C12.5612 0.944512 11.6412 0.834512 10.7612 0.994512Z"></path></g></svg>