<svg xmlns="http://www.w3.org/2000/svg" xmlns:xlink="http://www.w3.org/1999/xlink" width="20" height="20" viewBox="0 0 20 20" fill="none"><g opacity="1"  transform="translate(0 0)  rotate(0)"><path id="路径 1" fill-rule="evenodd" style="fill:#000000" opacity="1" d="M11.6545 3.7835L6.44448 8.9935C6.16448 9.2435 5.99448 9.6035 5.99448 10.0035C5.99448 10.3335 6.11448 10.6435 6.32448 10.8835L6.31448 10.8835L11.6945 16.2535C11.9345 16.5135 12.2845 16.6635 12.6645 16.6635C13.4045 16.6635 14.0045 16.0635 14.0045 15.3235C14.0045 14.8935 13.8045 14.5135 13.4945 14.2635L9.22448 10.0035L13.5145 5.7135C13.8145 5.4635 14.0045 5.0935 14.0045 4.6735C14.0045 3.9335 13.4045 3.3335 12.6645 3.3335C12.2645 3.3335 11.9045 3.5035 11.6545 3.7835Z"></path></g></svg>