<svg xmlns="http://www.w3.org/2000/svg" xmlns:xlink="http://www.w3.org/1999/xlink" width="242.68345642089844" height="70.04000091552734" viewBox="0 0 242.68345642089844 70.04000091552734" fill="none"><g opacity="1" transform="translate(0 0)  rotate(0)"><g opacity="1" transform="translate(0 0)  rotate(0)"><path id="路径 1" fill-rule="evenodd" style="fill:#FFFFFF" opacity="1" d="M12.39,21.0718l-7.51,11.49h-4.88l7.87,-11.49zM18.63,7.78182h4.16l-0.9,6.68998h12.75l-0.45,3.89h-12.66l-1.72,13.75c-0.18,0.99 -0.45,1.81 -1.09,2.35c-0.54,0.54 -1.35,0.91 -2.26,0.91c-0.72,0 -1.9,-0.19 -3.53,-0.55c-1.44,-0.27 -2.53,-0.54 -3.16,-0.72l0.45,-3.89c1,0.27 1.81,0.45 2.53,0.63c1.09,0.27 1.9,0.36 2.27,0.45h0.27c0.18,0 0.27,-0.09 0.36,-0.18c0.09,-0.09 0.09,-0.36 0.18,-0.63l1.54,-12.12h-9.77c-1.18,0 -1.99,-0.18 -2.53,-0.63c-0.55,-0.36 -0.82,-1 -0.82,-1.81c0,-0.45 0.09,-0.91 0.18,-1.36l1.99,-8.76998c0.27,-1.09 0.73,-1.81 1.18,-2.26c0.54,-0.46 1.45,-0.73 2.62,-0.73c2.62,-0.18 6.33,-0.45 10.95,-0.99c4.61,-0.46 8.41,-1 11.48,-1.45l-0.45,3.71c-3.44,0.45 -7.05,0.9 -10.85,1.36c-4.34,0.45 -8.05,0.72 -11.13,0.9l-1.81,8.04998h9.14zM28.94,21.4418l5.61,11.57h-4.79l-5.25,-11.57z"></path><path id="路径 2" fill-rule="evenodd" style="fill:#FFFFFF" opacity="1" d="M50.4699,34.19l0.55,-3.53c0.63,0.27 1.53,0.55 2.71,0.91l1.45,0.36c0.27,0.09 0.63,0.18 1.17,0.18c0.09,0 0.18,0 0.27,0c0.27,0 0.46,-0.27 0.55,-0.72l0.45,-3.44h-15.65l0.36,-3.35h15.56l0.09,-0.99l7.6,-2.53h-18.54l0.36,-3.17h22.79c0.72,0 1.27,0.18 1.63,0.54c0.36,0.36 0.54,0.82 0.54,1.36c0,0.36 -0.09,0.72 -0.36,1.08c-0.27,0.37 -0.63,0.64 -0.99,0.82l-7.42,2.89h12.84l-0.45,3.35h-14.38l-0.64,5.61c-0.18,0.9 -0.54,1.45 -1.08,1.81c-0.54,0.36 -1.45,0.45 -2.44,0.36c-2.9,-0.27 -5.16,-0.82 -6.97,-1.54zM77.3399,2.44l-0.46,3.26h-32.38l0.36,-3.26h14.21l-0.73,-2.44h4.34l0.82,2.44zM72.6299,16.1h-25.41l0.54,-5.79c0.18,-1.81 1.27,-2.71 3.26,-2.62h19.17c1,0 1.72,0.27 2.26,0.72c0.55,0.45 0.82,1.09 0.82,1.99c0,0.27 0,0.45 0,0.64zM69.1099,13.03l0.18,-2.27h-17.73l-0.36,2.27z"></path><path id="路径 3" fill-rule="evenodd" style="fill:#FFFFFF" opacity="1" d="M83.9416,14.7436l0.45,-3.71h5.79c0.81,0 1.45,0.27 1.9,0.73c0.45,0.45 0.63,1.08 0.63,1.99c0,0.27 0,0.54 0,0.72l-1.45,11.94c-0.09,0.18 -0.09,0.36 -0.09,0.45c1,1.45 2.08,2.53 3.35,3.35c1.81,1.08 3.98,1.63 6.6004,1.54h17.73l-1.17,3.88h-18.0004c-2.26,0 -4.34,-0.45 -6.15,-1.44c-1.36,-0.73 -2.54,-1.72 -3.62,-2.99c-0.91,1.81 -1.99,3.44 -3.26,4.89l-4.34,-1.27c1.36,-1.36 2.44,-2.71 3.26,-4.25c0.81,-1.45 1.35,-3.08 1.62,-4.79l1.27,-11.04zM87.0116,0.72362l7.78,3.53l-0.54,4.25l-7.69,-3.53zM113.242,17.6336l4.08,10.95h-4.08l-0.63,-1.81c-3.07,0.45 -7.6,1 -13.6604,1.45c-0.54,0.09 -1.17,0 -1.72,-0.27c-0.54,-0.18 -0.99,-0.55 -1.26,-0.91c-0.27,-0.36 -0.45,-0.81 -0.45,-1.26c0,-0.64 0.27,-1.27 0.81,-1.9c1.72,-2.27 3.53,-5.25 5.3404,-9.05h-6.3304l0.45,-3.62h22.5204l-0.45,3.62h-11.94c-1.54,3.08 -3.35,6.24 -5.43,9.59c3.71,-0.27 7.33,-0.73 10.86,-1.27l-1.9,-5.52zM117.592,2.26362l-0.46,3.62h-19.0804l0.45,-3.62z"></path><path id="路径 4" fill-rule="evenodd" style="fill:#FFFFFF" opacity="1" d="M152.683,0.18091v0.18h-0.03zM152.653,0.36091l-0.96,6.33h4.61c2.35,0 3.44,1.36 3.16,4.06999c-0.72,8.6 -1.62,15.92 -2.62,22.07c-0.18,1.09 -0.54,1.81 -0.99,2.36c-0.46,0.45 -1.18,0.72 -1.99,0.72c-0.37,0 -0.73,0 -1.18,-0.09c-1.81,-0.27 -3.53,-0.82 -4.88,-1.45l0.45,-3.62c1.72,0.55 3.07,1 4.25,1.27c0.09,0 0.27,0 0.45,0c0.18,0 0.36,-0.09 0.45,-0.18c0.09,-0.09 0.19,-0.36 0.28,-0.63c0.54,-4.26 0.99,-7.6 1.26,-9.95l0.54,-5.52l0.46,-5.16h-4.8l-0.81,5.88c-0.54,3.8 -1.36,7.33 -2.53,10.77c-1.18,3.43 -2.63,6.42 -4.16,8.77l-3.8,-1.09l0.54,-0.9l0.45,-0.91h-3.16l-0.37,-2.26c-1.44,0.37 -3.07,0.73 -4.88,1.09c-0.81,0.18 -2.44,0.54 -4.79,0.99c-0.46,0.09 -0.73,0.09 -0.91,0.09c-0.72,0 -1.27,-0.18 -1.63,-0.54c-0.36,-0.36 -0.54,-0.81 -0.54,-1.36c0,-0.45 0.18,-1.08 0.45,-1.71c2.17,-4.62 3.98,-8.96 5.25,-13.03h-4.8l0.46,-3.62h16.46l-0.45,3.62h-7.69c-1.45,4.52 -3.17,8.68 -4.89,12.48l1.09,-0.18c0.36,-0.09 1.18,-0.18 2.62,-0.45c1.36,-0.27 2.63,-0.54 3.8,-0.9l-1.08,-6.88h3.52l1.9,12.3c2.72,-4.7 4.44,-10.13 5.34,-16.28l0.81,-5.79h-4.52l0.45,-3.79999h4.62l0.9,-6.51zM142.103,2.71091l-0.36,3.53h-14.21l0.46,-3.53z"></path><path id="路径 5" fill-rule="evenodd" style="fill:#FFFFFF" opacity="1" d="M188.319,0v0.09h-0.01zM188.309,0.09l-0.71,6.78h12.12l-0.45,3.8h-12.03l-0.82,7.69h11.49l-0.45,3.8h-11.49l-0.99,8.96h14.83l-0.45,3.89h-33.47l0.45,-3.89h14.47l0.91,-8.96h-11.4l0.45,-3.8h11.4l0.82,-7.69h-9.23l-0.54,1.27c-0.27,0.54 -0.55,1.27 -0.91,2.08c-0.36,0.81 -0.63,1.45 -0.9,1.99h-4.53c1.09,-2.35 2.27,-4.97 3.44,-7.96c0.73,-1.81 1.54,-3.98 2.35,-6.42h4.44l-0.91,2.53c-0.18,0.45 -0.45,1.36 -0.99,2.8h8.05l0.72,-6.87z"></path><path id="路径 6" fill-rule="evenodd" style="fill:#FFFFFF" opacity="1" d="M216.362,20.5341c-0.63,2.08 -1.54,4.7 -2.71,7.78c-1.09,2.8 -1.99,5.06 -2.81,6.96h-4.43c2.08,-4.7 3.98,-9.59 5.88,-14.74zM208.942,9.40407l7.6,4.16003l-0.45,4.16l-7.78,-4.25zM210.932,0.81407l7.78,4.16l-0.54,4.25l-7.69,-4.25zM242.682,11.4841l-0.45,3.53h-10.13l-0.54,4.98h5.06c1.18,0 2.08,0.27 2.62,0.72c0.55,0.45 0.82,1.27 0.82,2.35c0,0.36 0,0.63 0,0.91l-1.45,10.94h-20.89l1.35,-11.22c0.18,-1.35 0.55,-2.35 1.09,-2.89c0.54,-0.54 1.45,-0.81 2.71,-0.81h4.62l0.54,-4.98h-9.86l0.45,-3.53h9.77l0.54,-5.42003c-2.8,0.18 -5.7,0.36 -8.59,0.45l0.45,-3.53c6.42,-0.27 13.39,-0.9 20.9,-1.72l-0.46,3.71c-2.8,0.27 -5.51,0.54 -8.14,0.72l-0.63,5.70003h10.22zM235.172,31.3841l1,-7.96h-13.21l-0.81,7.96z"></path></g><g opacity="1" transform="translate(42.059898376464844 52)  rotate(0)"><path id="路径 7" fill-rule="evenodd" style="fill:#FFFFFF" opacity="1" d="M0 14.03L9.2 14.03L9.45 11.99L2.45 11.99L2.95 7.9L8.92 7.9L9.16 5.89L3.19 5.89L3.68 2L10.51 2L10.76 0L1.72 0L0 14.03Z"></path><path id="路径 8" fill-rule="evenodd" style="fill:#FFFFFF" opacity="1" d="M14.3173 5.60091L16.8973 5.60091C18.1673 5.60091 18.8173 6.26091 18.8173 7.53091C18.8173 7.65091 18.8173 7.81091 18.7773 8.06091L18.0373 14.0709L20.2073 14.0709L20.9473 8.14091C20.9873 7.81091 20.9873 7.49091 20.9873 7.20091C20.9873 4.83091 19.6773 3.64091 17.0973 3.64091L12.3973 3.64091L11.1273 14.0309L13.2973 14.0309L14.3173 5.64091L14.3173 5.60091Z"></path><path id="路径 9" fill-rule="evenodd" style="fill:#FFFFFF" opacity="1" d="M23.9318,3.64h2.17l-1.35,11.09c-0.12,1.1 -0.49,1.92 -1.11,2.49c-0.61,0.58 -1.47,0.82 -2.66,0.82c-0.61,0 -1.14,-0.04 -1.55,-0.08l0.2,-2.01c0.45,0.05 0.95,0.09 1.48,0.09c0.45,0 0.82,-0.13 1.06,-0.41c0.25,-0.29 0.41,-0.66 0.45,-1.19zM26.3818,2.25h-2.45l0.29,-2.25h2.45z"></path><path id="路径 10" fill-rule="evenodd" style="fill:#FFFFFF" opacity="1" d="M27.6591,8.05909c0.36,-2.99 2,-4.5 4.95,-4.5h0.9c2.57,0 3.88,1.19 3.88,3.56c0,0.29 0,0.61 -0.04,0.94l-0.2,1.55c-0.37,2.99001 -2.01,4.50001 -4.95,4.50001h-0.9c-2.58,0 -3.89,-1.18 -3.89,-3.55c0,-0.29 0,-0.62001 0.04,-0.95001zM34.9391,9.65909l0.2,-1.68c0.04,-0.25 0.04,-0.41 0.04,-0.53c0,-1.27 -0.65,-1.93 -1.92,-1.93h-0.9c-1.51,0 -2.33,0.82 -2.54,2.46l-0.2,1.72c-0.04,0.24 -0.04,0.41001 -0.04,0.53001c0,1.27 0.65,1.92 1.92,1.92h0.9v-0.04c1.51,0 2.33,-0.82 2.54,-2.45001z"></path><path id="路径 11" fill-rule="evenodd" style="fill:#FFFFFF" opacity="1" d="M47.4136 3.64091L43.4836 11.0409L43.4436 11.0409L41.1936 3.64091L38.8636 3.64091L42.1336 13.6209L39.8036 17.9609L42.0936 17.9609L49.7436 3.64091L47.4136 3.64091Z"></path><path id="路径 12" fill-rule="evenodd" style="fill:#FFFFFF" opacity="1" d="M58.2964 14.03L60.5064 14.03L61.1964 8.1L67.3364 0L64.6364 0L60.4664 5.85L60.1764 5.85L57.3564 0L54.7364 0L59.0364 8.06L58.2964 14.03Z"></path><path id="路径 13" fill-rule="evenodd" style="fill:#FFFFFF" opacity="1" d="M67.4637,8.05909c0.36,-2.99 2,-4.5 4.95,-4.5h0.9c2.5699,0 3.8799,1.19 3.8799,3.56c0,0.29 0,0.61 -0.04,0.94l-0.2,1.55c-0.37,2.99001 -2.01,4.50001 -4.95,4.50001h-0.8999c-2.58,0 -3.89,-1.18 -3.89,-3.55c0,-0.29 0,-0.62001 0.04,-0.95001zM74.7437,9.65909l0.1999,-1.68c0.0401,-0.25 0.0401,-0.41 0.0401,-0.53c0,-1.27 -0.6501,-1.93 -1.92,-1.93h-0.9c-1.5101,0 -2.3301,0.82 -2.5401,2.46l-0.1999,1.68c-0.04,0.24 -0.04,0.40001 -0.04,0.53001c0,1.27 0.65,1.92 1.9199,1.92h0.9001c1.5099,0 2.3299,-0.82 2.54,-2.45001z"></path><path id="路径 14" fill-rule="evenodd" style="fill:#FFFFFF" opacity="1" d="M82.8809 11.99C82.2309 11.99 81.6909 11.86 81.4109 11.62C81.1209 11.37 80.9609 10.92 80.9609 10.27C80.9609 9.98 80.9609 9.78 81.0009 9.61L81.7409 3.6L79.5709 3.6L78.8309 9.53C78.7909 9.86 78.7909 10.19 78.7909 10.47C78.7909 12.85 80.1009 14.03 82.6809 14.03L87.3809 14.03L88.6509 3.64L86.4809 3.64L85.4609 11.99L82.8809 11.99Z"></path><path id="路径 15" fill-rule="evenodd" style="fill:#FFFFFF" opacity="1" d="M96.7482 3.68091C96.2982 3.64091 95.7682 3.64091 95.1582 3.64091C93.5582 3.64091 92.4182 4.01091 91.6382 4.70091C90.8582 5.40091 90.4082 6.54091 90.2082 8.14091L89.4682 14.0309L91.6382 14.0309L92.3682 8.10091C92.4582 7.24091 92.6982 6.59091 93.1082 6.22091C93.5182 5.85091 94.1282 5.64091 94.9082 5.64091C95.1582 5.64091 95.6482 5.64091 96.4182 5.69091L96.7482 3.68091Z"></path><path id="路径 16" fill-rule="evenodd" style="fill:#FFFFFF" opacity="1" d="M104.686 14.2409L104.846 14.2409C106.076 14.2409 107.096 14.0709 107.876 13.8309C108.656 13.5409 109.266 13.1309 109.676 12.5209C110.086 11.9009 110.376 11.0909 110.496 10.0609C110.536 9.74091 110.536 9.45091 110.536 9.20091C110.536 8.51091 110.416 7.94091 110.126 7.53091C109.836 7.08091 109.436 6.75091 108.896 6.54091C108.326 6.34091 107.636 6.14091 106.686 6.01091C106.366 5.97091 106.156 5.93091 106.036 5.93091C105.466 5.85091 105.016 5.77091 104.766 5.69091C104.526 5.60091 104.316 5.48091 104.156 5.28091C104.036 5.11091 103.946 4.79091 103.946 4.42091C103.946 3.52091 104.116 2.94091 104.566 2.62091C105.016 2.29091 105.666 2.13091 106.566 2.13091L107.876 2.13091L109.516 2.13091C109.886 2.13091 110.376 2.13091 111.026 2.13091L111.276 0.0809088C110.126 0.0409088 109.066 0.0409088 108.126 0.0409088L106.816 0.0409088C105.216 0.0409088 103.986 0.330909 103.216 0.940909C102.436 1.55091 101.946 2.58091 101.786 3.97091C101.736 4.29091 101.736 4.58091 101.736 4.87091C101.736 5.56091 101.866 6.09091 102.106 6.50091C102.396 6.91091 102.766 7.24091 103.296 7.44091C103.826 7.65091 104.526 7.81091 105.426 7.89091C106.196 7.98091 106.776 8.06091 107.186 8.18091C107.586 8.30091 107.876 8.47091 108.086 8.67091C108.286 8.88091 108.366 9.20091 108.366 9.65091C108.366 9.74091 108.366 9.90091 108.326 10.1009C108.286 10.5509 108.166 10.9209 107.956 11.2109C107.756 11.4909 107.426 11.7009 106.976 11.8609C106.526 11.9909 105.916 12.0709 105.136 12.0709L104.886 12.0709C103.746 12.0709 102.396 11.9909 100.886 11.7809L100.636 13.8709C101.696 14.0309 103.046 14.1109 104.686 14.1109L104.686 14.2409Z"></path><path id="路径 17" fill-rule="evenodd" style="fill:#FFFFFF" opacity="1" d="M111.518,17.9609l1.76,-14.31999h4.7c1.31,0 2.25,0.29 2.91,0.9c0.65,0.61 0.98,1.47 0.98,2.66c0,0.29 0,0.61 -0.04,0.94l-0.16,1.43c-0.37,2.98999 -2.01,4.49999 -4.95,4.49999h-2.5l-0.49,3.93h-2.21zM119.458,9.57091l0.2,-1.51c0.04,-0.25 0.04,-0.41 0.04,-0.53c0,-1.27 -0.65,-1.93 -1.92,-1.93h-2.54l-0.77,6.42999h2.45c1.51,0 2.33,-0.82 2.54,-2.45999z"></path><path id="路径 18" fill-rule="evenodd" style="fill:#FFFFFF" opacity="1" d="M123.509,8.05909c0.36,-2.99 2,-4.5 4.95,-4.5h0.9c2.57,0 3.88,1.19 3.88,3.56c0,0.29 0,0.61 -0.04,0.94l-0.2,1.55c-0.37,2.99001 -2.01,4.50001 -4.95,4.50001h-0.9c-2.58,0 -3.89,-1.18 -3.89,-3.55c0,-0.29 0,-0.62001 0.04,-0.95001zM130.789,9.65909l0.2,-1.68c0.04,-0.25 0.04,-0.41 0.04,-0.53c0,-1.27 -0.65,-1.93 -1.92,-1.93h-0.9c-1.51,0 -2.33,0.82 -2.54,2.46l-0.2,1.68c-0.04,0.24 -0.04,0.40001 -0.04,0.53001c0,1.27 0.65,1.92 1.92,1.92h0.9c1.51,0 2.33,-0.82 2.54,-2.45001z"></path><path id="路径 19" fill-rule="evenodd" style="fill:#FFFFFF" opacity="1" d="M141.462 3.72182C141.012 3.68182 140.482 3.68182 139.872 3.68182C138.272 3.68182 137.132 4.05182 136.352 4.74182C135.572 5.44182 135.122 6.58182 134.922 8.18182L134.182 14.0718L136.352 14.0718L137.082 8.10182C137.172 7.24182 137.412 6.58182 137.822 6.22182C138.232 5.85182 138.842 5.64182 139.622 5.64182C139.872 5.64182 140.362 5.64182 141.132 5.68182L141.462 3.72182Z"></path><path id="路径 20" fill-rule="evenodd" style="fill:#FFFFFF" opacity="1" d="M144.161 5.64181L143.551 10.7618C143.511 11.0418 143.511 11.2518 143.511 11.3318C143.511 12.2318 143.791 12.9318 144.371 13.3818C144.941 13.8318 145.721 14.0718 146.741 14.0718C147.521 14.0718 148.131 14.0718 148.621 14.0318L148.871 11.9818C147.971 12.0318 147.351 12.0318 146.991 12.0318C146.171 12.0318 145.761 11.5818 145.761 10.7618C145.761 10.5918 145.761 10.4718 145.761 10.3918L146.331 5.64181L149.521 5.64181L149.771 3.64181L146.581 3.64181L146.901 0.981812L144.741 0.981812L144.411 3.64181L142.041 3.64181L141.791 5.64181L144.161 5.64181Z"></path><path id="路径 21" fill-rule="evenodd" style="fill:#FFFFFF" opacity="1" d="M152.84 14.1918L153.41 14.1918C154.88 14.1918 155.99 13.9518 156.72 13.5018C157.46 13.0118 157.87 12.1918 158.03 11.0418C158.07 10.8818 158.07 10.6818 158.07 10.3918C158.07 9.82183 157.99 9.37182 157.75 9.00182C157.54 8.63182 157.21 8.38182 156.76 8.22182C156.27 8.06182 155.62 7.93182 154.84 7.85182C154.19 7.77182 153.74 7.69182 153.49 7.65182C153.29 7.57182 153.08 7.48182 152.96 7.32182C152.84 7.20182 152.8 7.03182 152.8 6.83182C152.8 6.75182 152.8 6.67182 152.8 6.58182C152.84 6.34182 152.92 6.13182 153.04 6.01182C153.16 5.89182 153.37 5.77182 153.65 5.73182C153.94 5.68182 154.39 5.64182 154.92 5.64182L158.32 5.64182L158.56 3.68182L155.95 3.68182L155.17 3.68182C154.19 3.68182 153.37 3.76182 152.75 3.97182C152.1 4.17182 151.65 4.46182 151.28 4.91182C150.91 5.36182 150.71 5.93182 150.63 6.71182C150.59 6.99182 150.59 7.16182 150.59 7.28182C150.59 7.81182 150.71 8.26182 150.91 8.59182C151.12 8.92182 151.49 9.16182 151.94 9.33182C152.51 9.49182 153.12 9.61182 153.78 9.65182L154.23 9.69182C154.8 9.73182 155.17 9.82183 155.37 9.86182C155.58 9.90182 155.74 10.0218 155.82 10.1418C155.95 10.2318 155.99 10.4318 155.99 10.7618C155.99 10.8418 155.99 10.9218 155.99 11.0018C155.95 11.3718 155.74 11.6618 155.41 11.8618C155.09 12.0718 154.51 12.1518 153.74 12.1518L153.08 12.1518C152.35 12.1118 151.36 12.0718 150.14 11.9418L149.85 13.9518C150.71 14.0318 151.69 14.0718 152.84 14.1118L152.84 14.1918Z"></path></g></g></svg>