<svg xmlns="http://www.w3.org/2000/svg" xmlns:xlink="http://www.w3.org/1999/xlink" width="390" height="44" viewBox="0 0 390 44" fill="none"><g opacity="1" transform="translate(0 2)  rotate(0)"><g opacity="1" transform="translate(133.43325805664062 0)  rotate(0)"><g id="矩形 1" filter="url(#filter_4)"><path id="矩形 1" fill-rule="evenodd" style="fill:#FFFFFF" opacity="1" d="M6 26L20 26C23.31 26 26 23.31 26 20L26 6C26 2.69 23.31 0 20 0L6 0C2.69 0 0 2.69 0 6L0 20C0 23.31 2.69 26 6 26Z"></path></g><g opacity="1" transform="translate(4.4012451171875 2.600006103515625)  rotate(0)"><path id="路径 1" fill-rule="evenodd" style="fill:#6F8FEA" opacity="1" d="M5.94 11.9949L8.54 9.21488L2.96 4.70488C2.58 4.46488 1.67 3.90488 0.67 4.70488C-0.32 5.50488 -0.12 6.90488 0.67 7.60488C1.47 8.30488 3.06 9.68488 3.66 10.2049L5.94 11.9949Z"></path><path id="路径 1" fill-rule="evenodd" fill="url(#linear_0)" opacity="1" d="M3.66,10.2049zM6.63,7.67488zM3.66,10.2049c-0.6,-0.52002 -2.19,-1.90002 -2.99,-2.60002c-0.79,-0.7 -0.99,-2.1 0,-2.9c1,-0.8 1.91,-0.24 2.29,0l3.67,2.97z"></path><path id="路径 1" fill-rule="evenodd" style="fill:#6F8FEA" opacity="1" d="M16.0041 3.99636C16.8441 3.12636 18.3941 1.19636 15.6041 2.09636C12.8241 2.99636 8.14407 6.49636 6.54407 7.59636C6.54407 7.59636 6.54407 7.59636 5.11407 8.52636C3.67407 9.45636 0.674072 7.59636 0.674072 7.59636C1.47407 8.29636 3.06407 9.68636 3.66407 10.1964C3.66407 10.1964 2.57407 11.1364 1.96407 12.1964C1.37407 13.1264 -0.125928 16.2964 1.37407 18.3964C2.86407 20.4964 3.86407 20.7964 3.86407 20.7964C3.86407 18.3964 4.15407 13.7964 16.0041 3.99636Z"></path><path id="路径 1" fill-rule="evenodd" fill="url(#linear_1)" opacity="1" d="M15.6041 2.09636C12.8241 2.99636 8.14407 6.49636 6.54407 7.59636C6.54407 7.59636 6.54407 7.59636 5.11407 8.52636C3.67407 9.45636 0.674072 7.59636 0.674072 7.59636C1.47407 8.29636 3.06407 9.68636 3.66407 10.1964C3.66407 10.1964 2.57407 11.1364 1.96407 12.1964C1.37407 13.1264 -0.125928 16.2964 1.37407 18.3964C2.86407 20.4964 3.86407 20.7964 3.86407 20.7964C3.86407 18.3964 4.15407 13.7964 16.0041 3.99636C16.8441 3.12636 18.3941 1.19636 15.6041 2.09636Z"></path><path id="路径 1" fill-rule="evenodd" fill="url(#linear_2)" opacity="1" d="M6.54407 7.59636C6.54407 7.59636 6.54407 7.59636 5.11407 8.52636C3.67407 9.45636 0.674072 7.59636 0.674072 7.59636C1.47407 8.29636 3.06407 9.68636 3.66407 10.1964C3.66407 10.1964 2.57407 11.1364 1.96407 12.1964C1.37407 13.1264 -0.125928 16.2964 1.37407 18.3964C2.86407 20.4964 3.86407 20.7964 3.86407 20.7964C3.86407 18.3964 4.15407 13.7964 16.0041 3.99636C16.8441 3.12636 18.3941 1.19636 15.6041 2.09636C12.8241 2.99636 8.14407 6.49636 6.54407 7.59636Z"></path><path id="圆形 1" fill-rule="evenodd" style="fill:#6F8FEA" opacity="1" d="M7.34488 0C6.02488 0 4.95488 1.07 4.95488 2.4C4.95488 3.73 6.02488 4.8 7.34488 4.8C8.66488 4.8 9.73488 3.73 9.73488 2.4C9.73488 1.07 8.66488 0 7.34488 0Z"></path><path id="圆形 1" fill-rule="evenodd" fill="url(#linear_3)" opacity="1" d="M7.34488 0C6.02488 0 4.95488 1.07 4.95488 2.4C4.95488 3.73 6.02488 4.8 7.34488 4.8C8.66488 4.8 9.73488 3.73 9.73488 2.4C9.73488 1.07 8.66488 0 7.34488 0Z"></path></g></g><g opacity="1" transform="translate(167.43325805664062 3)  rotate(0)"><mask id="bg-mask-0" fill="white"><use xlink:href="#path_0"></use></mask><g mask="url(#bg-mask-0)" ><g opacity="1" transform="translate(0 0)  rotate(0)"><path id="路径 1" fill-rule="evenodd" style="fill:#FFFFFF" opacity="1" d="M0,18.92l0.28,-2.06c0.61,0.28 1.17,0.47 1.64,0.52h0.05c0.18,0 0.33,-0.14 0.37,-0.42l0.61,-5.06l-1.26,0.32l-1.32,0.33l0.33,-2.25c0.66,-0.14 1.5,-0.32 2.49,-0.6l0.51,-4.17h-2.44l0.24,-2.06h2.48l0.42,-3.47h2.16l-0.42,3.47h2.34l-0.24,2.06h-2.34l-0.42,3.51c1.03,-0.33 1.83,-0.61 2.44,-0.84l-0.24,2.15c-0.84,0.33 -1.68,0.61 -2.43,0.84l-0.8,6.7c-0.09,0.56 -0.28,0.99 -0.56,1.27c-0.28,0.32 -0.66,0.47 -1.08,0.47c-0.14,0 -0.23,0 -0.28,0c-0.94,-0.15 -1.78,-0.38 -2.53,-0.71zM8.52,18.74c2.96,-2.67 4.83,-5.91 5.72,-9.7h-1.69c-0.51,1.69 -1.22,3.23 -2.15,4.73c-0.94,1.45 -2.02,2.76 -3.28,3.93l-1.83,-0.93c1.27,-1.13 2.34,-2.39 3.28,-3.7c0.94,-1.31 1.64,-2.67 2.06,-4.03h-0.89c-0.37,0 -0.65,-0.09 -0.89,-0.33c-0.23,-0.19 -0.33,-0.47 -0.33,-0.75c0,-0.23 0.1,-0.42 0.24,-0.65c0.14,-0.24 0.37,-0.42 0.65,-0.57c0.89,-0.46 2.02,-1.12 3.33,-1.87c1.5,-0.89 2.58,-1.59 3.19,-2.06h-6.56l0.23,-1.97h8.1c0.47,0 0.8,0.14 1.08,0.38c0.28,0.23 0.42,0.51 0.42,0.79c0,0.24 -0.04,0.43 -0.18,0.66c-0.1,0.19 -0.28,0.37 -0.52,0.56c-2.53,1.78 -4.5,3.09 -5.99,3.89h5.01c0.7,0 1.22,0.14 1.54,0.42c0.33,0.28 0.47,0.7 0.47,1.31c0,0.19 0,0.38 0,0.47c-0.09,0.94 -0.23,2.25 -0.42,3.94c-0.23,1.73 -0.47,3.27 -0.7,4.59c-0.14,0.74 -0.38,1.21 -0.71,1.45c-0.32,0.23 -0.89,0.33 -1.59,0.28c-1.03,-0.1 -1.96,-0.28 -2.81,-0.61l0.19,-1.97c0.89,0.33 1.73,0.52 2.44,0.56h0.14c0.18,0 0.28,-0.04 0.28,-0.18c0.18,-1.03 0.42,-2.44 0.65,-4.17c0.24,-1.73 0.38,-3.14 0.47,-4.22h-1.4c-0.52,2.3 -1.27,4.31 -2.21,6.05c-0.93,1.73 -2.1,3.23 -3.51,4.54z"></path><path id="路径 2" fill-rule="evenodd" style="fill:#FFFFFF" opacity="1" d="M29.9319,5.9505c-0.33,3 -0.8,5.57 -1.45,7.68c-0.71,2.34 -1.64,4.45 -2.91,6.32l-2.34,-0.61c1.26,-1.82 2.25,-3.84 2.95,-5.99c0.7,-2.16 1.22,-4.64 1.5,-7.36l0.66,-5.85h2.24zM27.0719,4.7805l-1.64,6.93h-1.97l1.64,-6.93zM32.5019,4.8705l0.0499,6.79h-1.8299v-6.79zM36.5319,0.9405l-2.06,17.61h-2.11l2.06,-17.61zM38.5919,5.0105l0.28,6.79h-1.8201l-0.2399,-6.79zM42.9519,0.1405l-2.11,19.77h-2.25l2.11,-19.77z"></path><path id="路径 3" fill-rule="evenodd" style="fill:#FFFFFF" opacity="1" d="M46.8385,8.15104v-0.09h0.01zM46.8485,8.06104l0.22,-1.97h3.24c0.46,0 0.79,0.14 1.03,0.37c0.23,0.28 0.37,0.61 0.37,1.13c0,0.18 0,0.28 0,0.37l-0.84,6.64996c-0.05,0.14 -0.05,0.19 -0.05,0.24c0.56,0.79 1.17,1.4 1.87,1.82c0.99,0.61 2.25,0.94 3.7,0.85h9.93l-0.65,2.15h-10.07c-1.27,0 -2.44,-0.28 -3.47,-0.84c-0.75,-0.38 -1.4,-0.94 -2.01,-1.69c-0.52,1.03 -1.13,1.92 -1.83,2.72l-2.34,-0.61c0.75,-0.75 1.36,-1.55 1.83,-2.34c0.47,-0.8 0.75,-1.69 0.89,-2.67l0.7,-6.17996zM48.5685,0.28104l4.36,1.97l-0.28,2.39l-4.31,-1.97zM63.2285,9.74104l2.25,6.13996h-2.25l-0.37,-1.03c-1.73,0.28 -4.26,0.56 -7.64,0.84c-0.32,0.05 -0.65,0 -0.93,-0.14c-0.33,-0.14 -0.56,-0.28 -0.71,-0.52c-0.18,-0.23 -0.23,-0.46 -0.23,-0.7c0,-0.33 0.14,-0.7 0.42,-1.08c0.99,-1.26 1.97,-2.95 3,-5.04996h-3.51l0.28,-2.02h12.6l-0.28,2.02h-6.7c-0.89,1.73 -1.88,3.50996 -3.05,5.33996c2.11,-0.19 4.13,-0.43 6.05,-0.71l-1.08,-3.08996zM65.6685,1.12104l-0.28,2.02h-10.68l0.28,-2.02z"></path><path id="路径 4" fill-rule="evenodd" style="fill:#FFFFFF" opacity="1" d="M85.2919,0l-0.51,3.61h2.57c1.31,0 1.92,0.75 1.78,2.24c-0.42,4.83 -0.89,8.9 -1.45,12.32c-0.09,0.61 -0.28,1.03 -0.56,1.31c-0.28,0.29 -0.66,0.38 -1.13,0.38c-0.18,0 -0.42,0 -0.65,-0.05c-1.03,-0.18 -1.97,-0.42 -2.77,-0.79l0.24,-2.02c0.94,0.33 1.73,0.56 2.34,0.7c0.05,0 0.14,0 0.23,0c0.15,0 0.24,-0.04 0.29,-0.09c0.04,-0.05 0.09,-0.19 0.14,-0.37c0.32,-2.39 0.56,-4.22 0.7,-5.53l0.33,-3.09l0.28,-2.86h-2.67l-0.47,3.28c-0.33,2.11 -0.8,4.12 -1.41,6c-0.65,1.92 -1.45,3.55 -2.34,4.91l-2.11,-0.61l0.33,-0.46l0.28,-0.47h-1.73l-0.19,-1.27c-0.79,0.19 -1.68,0.42 -2.76,0.61c-0.47,0.1 -1.36,0.28 -2.72,0.56c-0.23,0.05 -0.42,0.05 -0.51,0.05c-0.38,0 -0.7,-0.09 -0.89,-0.28c-0.24,-0.19 -0.33,-0.47 -0.33,-0.8c0,-0.28 0.09,-0.56 0.23,-0.98c1.22,-2.58 2.21,-5.01 2.96,-7.26h-2.67l0.23,-2.01h9.18l-0.23,2.01h-4.31c-0.85,2.53 -1.74,4.87 -2.77,6.98l0.61,-0.09c0.19,-0.05 0.66,-0.15 1.45,-0.29c0.8,-0.14 1.5,-0.32 2.11,-0.46l-0.51,-3.94h1.96l1.08,6.84c1.5,-2.62 2.48,-5.67 3,-9.13l0.42,-3.24h-2.53l0.23,-2.1h2.58l0.52,-3.61zM79.3919,1.41l-0.19,1.96h-7.96l0.23,-1.96z"></path></g></g></g></g><defs><filter id="filter_4" x="-4" y="-4" width="34" height="34" filterUnits="userSpaceOnUse" color-interpolation-filters="sRGB"><feFlood flood-opacity="0" result="BackgroundImageFix"/>
          <feColorMatrix in="SourceAlpha" type="matrix" values="0 0 0 0 0 0 0 0 0 0 0 0 0 0 0 0 0 0 127 0"/>
          
          <feOffset dx="0" dy="2"/>
          <feGaussianBlur stdDeviation="2"/>
          <feColorMatrix type="matrix" values="0 0 0 0 0.43529411764705883 0 0 0 0 0.5607843137254902 0 0 0 0 0.9176470588235294 0 0 0 0.1 0"/>
          <feBlend mode="normal" in2="BackgroundImageFix" result="effect1_Shadow"/>
          <feBlend mode="normal" in="SourceGraphic" in2="effect1_Shadow" result="shape"/></filter><linearGradient id="linear_0" x1="-4.3519435405973557e-16%" y1="19.87498254886115%" x2="64.35140046051701%" y2="89.39441895059164%" gradientUnits="objectBoundingBox"><stop offset="0" stop-color="#474AD9" stop-opacity="0.01" /><stop offset="0.23999999463558197" stop-color="#474AD9" stop-opacity="0.0118" /><stop offset="0.3799999952316284" stop-color="#474AD9" stop-opacity="0.051" /><stop offset="0.5" stop-color="#474AD9" stop-opacity="0.1216" /><stop offset="0.6000000238418579" stop-color="#474AD9" stop-opacity="0.2118" /><stop offset="0.699999988079071" stop-color="#474AD9" stop-opacity="0.3294" /><stop offset="0.7900000214576721" stop-color="#474AD9" stop-opacity="0.47839999999999994" /><stop offset="0.8700000047683716" stop-color="#474AD9" stop-opacity="0.6588" /><stop offset="0.949999988079071" stop-color="#474AD9" stop-opacity="0.8588" /><stop offset="1" stop-color="#474AD9" stop-opacity="1" /></linearGradient><linearGradient id="linear_1" x1="93.24069619178772%" y1="86.70551180839539%" x2="19.18495148420334%" y2="34.862810373306274%" gradientUnits="objectBoundingBox"><stop offset="0.14000000059604645" stop-color="#474AD9" stop-opacity="0" /><stop offset="0.2800000011920929" stop-color="#474AD9" stop-opacity="0.0196" /><stop offset="0.4000000059604645" stop-color="#474AD9" stop-opacity="0.0588" /><stop offset="0.5099999904632568" stop-color="#474AD9" stop-opacity="0.1412" /><stop offset="0.6200000047683716" stop-color="#474AD9" stop-opacity="0.2588" /><stop offset="0.7200000286102295" stop-color="#474AD9" stop-opacity="0.4" /><stop offset="0.8199999928474426" stop-color="#474AD9" stop-opacity="0.5804" /><stop offset="0.9200000166893005" stop-color="#474AD9" stop-opacity="0.7882000000000001" /><stop offset="1" stop-color="#474AD9" stop-opacity="1" /></linearGradient><radialGradient id="linear_2" cx="25.142999999999997%" cy="36.919000000000004%" fx="25.142999999999997%" fy="36.919000000000004%" r="0.5784499999999999" gradientTransform="translate(0.25143 0.36919) scale(1.1458640192227956 1) rotate(360) scale(1 1) translate(-0.25143 -0.36919)" ><stop offset="0" stop-color="#6F8FEA" stop-opacity="1" /><stop offset="0.25" stop-color="#6F8FEA" stop-opacity="0.9882" /><stop offset="0.38999998569488525" stop-color="#6F8FEA" stop-opacity="0.949" /><stop offset="0.5" stop-color="#6F8FEA" stop-opacity="0.902" /><stop offset="0.6000000238418579" stop-color="#6F8FEA" stop-opacity="0.8118" /><stop offset="0.6899999976158142" stop-color="#6F8FEA" stop-opacity="0.7019999999999998" /><stop offset="0.7699999809265137" stop-color="#6F8FEA" stop-opacity="0.5686" /><stop offset="0.8500000238418579" stop-color="#6F8FEA" stop-opacity="0.4" /><stop offset="0.9300000071525574" stop-color="#6F8FEA" stop-opacity="0.21959999999999996" /><stop offset="1" stop-color="#6F8FEA" stop-opacity="0" /></radialGradient><linearGradient id="linear_3" x1="-4.3519435405973557e-16%" y1="19.87498254886115%" x2="64.35140046051701%" y2="89.39441895059164%" gradientUnits="objectBoundingBox"><stop offset="0" stop-color="#474AD9" stop-opacity="0.01" /><stop offset="0.23999999463558197" stop-color="#474AD9" stop-opacity="0.0118" /><stop offset="0.3799999952316284" stop-color="#474AD9" stop-opacity="0.051" /><stop offset="0.5" stop-color="#474AD9" stop-opacity="0.1216" /><stop offset="0.6000000238418579" stop-color="#474AD9" stop-opacity="0.2118" /><stop offset="0.699999988079071" stop-color="#474AD9" stop-opacity="0.3294" /><stop offset="0.7900000214576721" stop-color="#474AD9" stop-opacity="0.47839999999999994" /><stop offset="0.8700000047683716" stop-color="#474AD9" stop-opacity="0.6588" /><stop offset="0.949999988079071" stop-color="#474AD9" stop-opacity="0.8588" /><stop offset="1" stop-color="#474AD9" stop-opacity="1" /></linearGradient><rect id="path_0" x="0" y="0" width="89.13348946135831" height="20" /></defs></svg>